<svg id="Layer_1" data-name="Layer 1" xmlns="http://www.w3.org/2000/svg" viewBox="0 0 123 81"><defs><style>.cls-1,.cls-2,.cls-3,.cls-4{fill:none;stroke:#fff;stroke-miterlimit:10;}.cls-1{stroke-width:3px;}.cls-2{stroke-width:2px;}.cls-4{stroke-width:0.71px;}</style></defs><title>request_icon</title><rect class="cls-1" x="1.5" y="1.5" width="120" height="78"/><line class="cls-1" x1="30" y1="12" x2="93" y2="12"/><line class="cls-1" x1="30" y1="18" x2="81" y2="18"/><line class="cls-1" x1="7.5" y1="43" x2="112.35" y2="43"/><line class="cls-2" x1="7.5" y1="52" x2="20.5" y2="52"/><line class="cls-2" x1="24" y1="52" x2="37" y2="52"/><line class="cls-2" x1="40.5" y1="52" x2="53.5" y2="52"/><line class="cls-2" x1="57" y1="52" x2="70" y2="52"/><line class="cls-2" x1="73.5" y1="52" x2="86.5" y2="52"/><line class="cls-2" x1="90" y1="52" x2="103" y2="52"/><line class="cls-2" x1="7.5" y1="57.29" x2="20.5" y2="57.29"/><line class="cls-2" x1="24" y1="57.29" x2="37" y2="57.29"/><line class="cls-2" x1="40.5" y1="57.29" x2="53.5" y2="57.29"/><line class="cls-2" x1="57" y1="57.29" x2="70" y2="57.29"/><line class="cls-2" x1="73.5" y1="57.29" x2="86.5" y2="57.29"/><line class="cls-2" x1="90" y1="57.29" x2="103" y2="57.29"/><line class="cls-2" x1="7.5" y1="67.63" x2="112.35" y2="67.63"/><line class="cls-3" x1="7.5" y1="23.75" x2="112.35" y2="23.75"/><line class="cls-4" x1="6.5" y1="18.25" x2="6.5" y2="9.75"/><line class="cls-4" x1="8.14" y1="18.25" x2="8.14" y2="9.75"/><line class="cls-4" x1="9.68" y1="18.25" x2="9.68" y2="9.75"/><line class="cls-4" x1="16.43" y1="18.25" x2="16.43" y2="9.75"/><line class="cls-4" x1="11.41" y1="18.25" x2="11.41" y2="9.75"/><line class="cls-4" x1="13.15" y1="18.25" x2="13.15" y2="9.75"/><line class="cls-4" x1="14.69" y1="18.25" x2="14.69" y2="9.75"/><line class="cls-4" x1="21.24" y1="18.25" x2="21.24" y2="9.75"/><line class="cls-4" x1="17.96" y1="18.25" x2="17.96" y2="9.75"/><line class="cls-4" x1="19.8" y1="18.25" x2="19.8" y2="9.75"/><line class="cls-4" x1="96.03" y1="18.25" x2="96.03" y2="9.75"/><line class="cls-4" x1="97.67" y1="18.25" x2="97.67" y2="9.75"/><line class="cls-4" x1="99.21" y1="18.25" x2="99.21" y2="9.75"/><line class="cls-4" x1="105.96" y1="18.25" x2="105.96" y2="9.75"/><line class="cls-4" x1="100.94" y1="18.25" x2="100.94" y2="9.75"/><line class="cls-4" x1="102.68" y1="18.25" x2="102.68" y2="9.75"/><line class="cls-4" x1="104.22" y1="18.25" x2="104.22" y2="9.75"/><line class="cls-4" x1="110.77" y1="18.25" x2="110.77" y2="9.75"/><line class="cls-4" x1="107.49" y1="18.25" x2="107.49" y2="9.75"/><line class="cls-4" x1="109.33" y1="18.25" x2="109.33" y2="9.75"/><line class="cls-4" x1="112.35" y1="18.25" x2="112.35" y2="9.75"/><line class="cls-4" x1="117.16" y1="18.25" x2="117.16" y2="9.75"/><line class="cls-4" x1="113.89" y1="18.25" x2="113.89" y2="9.75"/><line class="cls-4" x1="115.73" y1="18.25" x2="115.73" y2="9.75"/><line class="cls-3" x1="5.5" y1="34.51" x2="22.5" y2="34.51"/><line class="cls-3" x1="5.5" y1="30.71" x2="22.5" y2="30.71"/></svg>