<?xml version="1.0" encoding="utf-8"?>
<!-- Generator: Adobe Illustrator 22.1.0, SVG Export Plug-In . SVG Version: 6.00 Build 0)  -->
<svg version="1.1" id="Layer_1" xmlns="http://www.w3.org/2000/svg" xmlns:xlink="http://www.w3.org/1999/xlink" x="0px" y="0px"
	 viewBox="0 0 128 128" style="enable-background:new 0 0 128 128;" xml:space="preserve">
<style type="text/css">
	.st0{fill:#FFFFFF;}
</style>
<g>
	<path class="st0" d="M102.2,59.4c-3.6,0-7.1,0-10.7,0c-3.7,0-4.4,0.7-5.9-2.5c-2.7-5.7-4.1-13.4-3.9-19.6
		c0.5-11.2,9.2-18.9,20.5-19c12.9-0.2,21.1,9.9,20.5,22.2c-0.2,3.2-0.8,6.3-1.6,9.3c-0.6,2.3-1.1,6.8-2.7,8.6
		C117.2,59.8,102.2,59.5,102.2,59.4z"/>
	<path class="st0" d="M77.7,80.9c2.7,0.6,4.8,2.3,7.5,3.3c2.8,1.1,5.7,1.7,8.7,2.1c6.5,0.8,13.6,0.9,20-0.6c3-0.7,5.8-1.7,8.6-3.1
		c1.5-0.7,3.3-2.6,4.1-0.7c0.7,1.5-2.3,6.3-3,7.5c-1.7,2.7-3.8,4.8-6.2,7c-2.8,2.5-2.7,3.1-3.4,6.4c-0.5,2.4-1.7,3.6-3.8,4.8
		c-5.2,2.9-12.9,3.1-17.5-1.2c-2.6-2.4-1-4.1-2.3-6.8c-0.9-2-3.7-3.5-5.3-5C81.4,90.9,78.5,86.1,77.7,80.9z"/>
	<path class="st0" d="M102.4,62.1c4.7,0,13.1-1.5,16.8,1.2c2.7,2.1,8.7,8.2,7.9,11.8c-2,9.1-21.1,9.2-27.8,9
		c-5.6-0.2-26.4-2.2-21.5-12.3c1.3-2.6,6.2-8.5,8.9-9.5C87.8,61.7,102.4,62.2,102.4,62.1z M102.6,78.5c3.8,0.1,14.2-0.6,15.3-5.3
		c1.3-5.5-11.4-6.6-14.6-6.7c-3.6-0.1-15.6,0.2-16.7,5.3C85.2,77.9,99.3,78.5,102.6,78.5z"/>
</g>
<g>
	<path class="st0" d="M34.9,56.8c6.3,0,12.7,0,19,0c1.4,0,2.6,0.4,3.1,1.8c0.2,0.6,0.2,1.3,0.2,1.9c0,0.7,0.2,0.9,0.9,1
		c2.5,0.3,4.9,1,7,2.6c3,2.3,3.7,6.1,2,9.3c-1.7,3.2-4.5,5.1-7.7,6.5c-1.5,0.6-3.1,1.1-4.7,1.5c-0.6,0.2-0.9,0.4-1.1,1
		c-0.3,0.7-0.6,1.4-1,2c-0.7,1.2-1.7,1.9-3.1,2.1c-5.4,1-10.9,1-16.4,0.9c-3.9-0.1-7.8-0.5-11.7-0.7c-2.3-0.2-3.7-1.4-4.6-3.5
		c-1.3-3.1-2-6.3-2.5-9.5c-0.6-4.5-1.1-9.1-1.6-13.7c-0.2-1.6,1.2-3.1,3-3.1c4.3,0,8.6,0,12.9,0C30.5,56.8,32.7,56.8,34.9,56.8
		C34.9,56.8,34.9,56.8,34.9,56.8z M55.2,77c2.9-0.9,5.6-2.2,7.6-4.6c0.3-0.4,0.6-0.9,0.8-1.4c0.6-1.2,0.3-2.5-0.6-3.4
		c-1.7-1.7-3.9-2-6.1-2.3C56.3,69.3,55.7,73.1,55.2,77z M19.6,81.1c0.1,0,0.2-0.1,0.3-0.1c0-0.2,0-0.3,0-0.5
		c-0.4-4.2-0.9-8.4-1.2-12.6c-0.1-1.9,0-3.9,0-5.8c0-2.3,0-2.3-2.3-2.3c-1,0-1.3,0.4-1.3,1.2c0.1,1.8,0,3.7,0.2,5.5
		c0.5,4.3,1.7,8.5,3.3,12.6C18.9,79.8,19.3,80.5,19.6,81.1z"/>
	<path class="st0" d="M35.9,98.3c-7.7,0-15.4,0-23,0c-2.1,0-4-0.5-5.9-1.6c-2.2-1.3-2.9-3.5-3.6-5.7c-0.3-0.9,0.7-1.9,1.8-1.8
		c2,0,4,0.1,6,0.2c2.3,0,4.7,0,7,0c9,0.1,17.9,0.1,26.9,0.2c4.2,0,8.3-0.1,12.5-0.2c2.7-0.1,5.5-0.2,8.2-0.3
		c1.6-0.1,2.5,1.2,1.9,2.6c-0.5,1.2-0.9,2.5-1.7,3.5c-1.6,2.2-3.9,3.1-6.6,3.1C51.5,98.4,43.7,98.3,35.9,98.3
		C35.9,98.3,35.9,98.3,35.9,98.3z"/>
	<path class="st0" d="M41.1,29.7c0.7,0,1.3-0.1,1.8,0c0.3,0.1,0.7,0.5,0.8,0.8c1.2,2.9,1,5.9,0.3,8.9c-0.5,2.4-1.1,4.7-1.6,7.1
		c-0.4,2.4-0.3,4.7,0.7,6.9c0.1,0.1,0.1,0.3,0.1,0.4c-1.4,0.7-2.3,0.3-2.8-1c-1-2.7-0.8-5.5-0.2-8.2c0.5-2.3,1.2-4.6,1.6-7
		c0.4-2.4,0.3-4.8-0.6-7C41.3,30.4,41.2,30.1,41.1,29.7z"/>
	<path class="st0" d="M25.5,29.7c0.6,0,1.2-0.1,1.8,0c0.3,0.1,0.6,0.5,0.7,0.8c1.3,3.1,0.9,6.3,0.1,9.5c-0.6,2.6-1.2,5.1-1.6,7.7
		c-0.3,2,0,3.9,0.9,5.7c0.1,0.1,0.1,0.3,0.1,0.4c-1.9,0.6-2.3,0.3-2.9-1.4c-0.9-2.7-0.6-5.3-0.1-8c0.5-2.5,1.2-4.9,1.7-7.4
		c0.4-2.2,0.3-4.3-0.6-6.4c-0.1-0.2-0.2-0.4-0.2-0.6C25.5,30,25.5,29.9,25.5,29.7z"/>
	<path class="st0" d="M33.4,29.7c0.6,0,1.2-0.1,1.8,0c0.3,0.1,0.6,0.5,0.7,0.8c1.2,2.8,1,5.8,0.3,8.7c-0.5,2.4-1.1,4.7-1.6,7.1
		c-0.5,2.4-0.3,4.8,0.7,7.1c0.1,0.1,0.1,0.3,0.1,0.4c-1.5,0.6-2.3,0.3-2.8-1.1c-1.1-3-0.6-6,0.1-9c0.5-2,1-4.1,1.4-6.2
		c0.4-2.3,0.4-4.7-0.6-6.9c-0.1-0.2-0.1-0.3-0.2-0.5C33.3,30,33.3,29.9,33.4,29.7z"/>
</g>
</svg>
