<?xml version="1.0" encoding="utf-8"?>
<!-- Generator: Adobe Illustrator 22.1.0, SVG Export Plug-In . SVG Version: 6.00 Build 0)  -->
<svg version="1.1" id="Layer_1" xmlns="http://www.w3.org/2000/svg" xmlns:xlink="http://www.w3.org/1999/xlink" x="0px" y="0px"
	 viewBox="0 0 128 128" style="enable-background:new 0 0 128 128;" xml:space="preserve">
<style type="text/css">
	.st0{fill:#FFFFFF;}
</style>
<g>
	<g>
		<path class="st0" d="M102.2,59.4c-3.6,0-7.1,0-10.7,0c-3.7,0-4.4,0.7-5.9-2.5c-2.7-5.7-4.1-13.4-3.9-19.6
			c0.5-11.2,9.2-18.9,20.5-19c12.9-0.2,21.1,9.9,20.5,22.2c-0.2,3.2-0.8,6.3-1.6,9.3c-0.6,2.3-1.1,6.8-2.7,8.6
			C117.2,59.8,102.2,59.5,102.2,59.4z"/>
		<path class="st0" d="M77.7,80.9c2.7,0.6,4.8,2.3,7.5,3.3c2.8,1.1,5.7,1.7,8.7,2.1c6.5,0.8,13.6,0.9,20-0.6c3-0.7,5.8-1.7,8.6-3.1
			c1.5-0.7,3.3-2.6,4.1-0.7c0.7,1.5-2.3,6.3-3,7.5c-1.7,2.7-3.8,4.8-6.2,7c-2.8,2.5-2.7,3.1-3.4,6.4c-0.5,2.4-1.7,3.6-3.8,4.8
			c-5.2,2.9-12.9,3.1-17.5-1.2c-2.6-2.4-1-4.1-2.3-6.8c-0.9-2-3.7-3.5-5.3-5C81.4,90.9,78.5,86.1,77.7,80.9z"/>
		<path class="st0" d="M102.4,62.1c4.7,0,13.1-1.5,16.8,1.2c2.7,2.1,8.7,8.2,7.9,11.8c-2,9.1-21.1,9.2-27.8,9
			c-5.6-0.2-26.4-2.2-21.5-12.3c1.3-2.6,6.2-8.5,8.9-9.5C87.8,61.7,102.4,62.2,102.4,62.1z M102.6,78.5c3.8,0.1,14.2-0.6,15.3-5.3
			c1.3-5.5-11.4-6.6-14.6-6.7c-3.6-0.1-15.6,0.2-16.7,5.3C85.2,77.9,99.3,78.5,102.6,78.5z"/>
		<path class="st0" d="M0.8,63.9C0.4,47.8,14.3,34.5,30.3,34.5c15.9,0,29.1,13.2,29.3,29.1c0.2,15.7-12.4,29-28,29.7
			C15.1,94.2,0.4,80.5,0.8,63.9z M16.8,87.5c1.8,1,8.7,4.6,10.9,3.4c1.5-0.8-0.2-5.7,1.8-5.4c1.6,0.2,0.2,4.5,1.8,5.4
			c2,1.2,9-1.8,10.7-2.7c-0.5-1-2.5-3.7-2.2-4.8c0.6-2.5,3.1,2.3,3.1,2.2c1.8,1.8,1.9,1,4.1-0.9c2.1-1.8,4-3.5,5.6-5.7
			c-0.8-0.6-4.2-2.2-4.2-3.2c0-2.5,4.5,1,5.3,1.5c1-1.8,4.6-8.7,3.4-10.7c-0.6-1.1-6-0.8-5.1-2.2c0.7-1.1,2.5-0.1,3.6-0.5
			c2-0.6,0.9,0.3,1.6-1.5c0.9-2.5-1.8-8.1-2.6-10.4c-1.1,0.6-5,3.5-5.5,1.4c-0.3-1.1,3.8-2.7,4.5-3.2c-2.1-3.5-4.9-6.5-8.3-8.7
			c-0.8,1.1-2.4,4.9-3.7,4.1c-1.3-0.8,1.3-4,2-5.2c-3.6-2-7.5-3.2-11.6-3.4c-0.1,1.1,0.5,5.1-1.1,5.3c-1.7,0.2-1-4.5-1-5.5
			c-4,0.1-8,1-11.7,2.8c0.3,0.6,2.5,4.2,2.4,4.8c-0.7,3-3.2-2.3-3.2-2.4c-1.5-1.6-0.5-1.4-2.6-0.4c-1.3,0.6-2.5,1.9-3.5,2.9
			c-0.8,0.7-1.9,1.6-2.4,2.6c-1.1,2.3-1.2,0.6,0.4,2.7c0.5,0.7,5.1,2.3,2.1,3.3c-0.7,0.2-4.2-2.4-4.7-2.7c-1.4,2.7-5,10.1-2.3,11.6
			c0.9,0.5,4-0.5,4.3,0.8c0.4,2-4.3,1.1-5.5,1.1c0.1,4.1,1,8.1,2.8,11.8c0.7-0.3,4.4-2.9,5.1-2c1.3,1.6-3.1,3.1-4.2,3.7
			c2.1,3.5,4.9,6.5,8.2,8.8c0.5-0.8,2.4-4.9,3.7-4.1C20.2,83.2,17.3,86.6,16.8,87.5z"/>
		<path class="st0" d="M27.8,61.3c-0.3-2.1-3.7-15.7,1-13.9c1.7,0.6,1.4,5.1,1.6,6.6c0.4,2.9,1.5,6.1,1.8,8.9c0.2,2-0.7,4.8-3.4,3.2
			c-0.9-0.5-1-1.8-1.5-2.6c-1-1.3-2.1-2.5-3.3-3.7c-2.4-2.5-4.9-4.9-7.3-7.4c-1.9-1.9-4.8-3.7-5.1-6.4c2.9,0.7,5.2,4.2,7.2,6.3
			C21.7,55.3,24.8,58.3,27.8,61.3z"/>
	</g>
</g>
</svg>
